<?xml version="1.0" encoding="utf-8"?>
<!-- Generator: Adobe Illustrator 16.0.0, SVG Export Plug-In . SVG Version: 6.00 Build 0)  -->
<!DOCTYPE svg PUBLIC "-//W3C//DTD SVG 1.1//EN" "http://www.w3.org/Graphics/SVG/1.1/DTD/svg11.dtd">
<svg version="1.1" id="Capa_1" xmlns="http://www.w3.org/2000/svg" xmlns:xlink="http://www.w3.org/1999/xlink" x="0px" y="0px"
	 width="11px" height="10.984px" viewBox="0 0 11 10.984" enable-background="new 0 0 11 10.984" xml:space="preserve">
<g>
	<path fill="#C5C7CB" d="M10.953,0.304C10.863,0.101,10.711,0,10.492,0H0.507c-0.219,0-0.372,0.103-0.46,0.305
		C-0.041,0.517-0.005,0.7,0.156,0.85l3.846,3.846v3.792c0,0.136,0.051,0.252,0.148,0.353l1.996,1.996
		c0.094,0.1,0.211,0.147,0.352,0.147c0.063,0,0.128-0.013,0.195-0.039c0.203-0.088,0.305-0.241,0.305-0.46V4.696l3.846-3.846
		C11.005,0.7,11.041,0.518,10.953,0.304z"/>
</g>
</svg>
