<?xml version="1.0" encoding="utf-8"?>
<!-- Generator: Adobe Illustrator 16.0.0, SVG Export Plug-In . SVG Version: 6.00 Build 0)  -->
<!DOCTYPE svg PUBLIC "-//W3C//DTD SVG 1.1//EN" "http://www.w3.org/Graphics/SVG/1.1/DTD/svg11.dtd">
<svg version="1.1" id="Capa_1" xmlns="http://www.w3.org/2000/svg" xmlns:xlink="http://www.w3.org/1999/xlink" x="0px" y="0px"
	 width="11px" height="10.984px" viewBox="250.5 250.507 11 10.984" enable-background="new 250.5 250.507 11 10.984"
	 xml:space="preserve">
<g>
	<path fill="#C5C7CB" d="M261.453,250.811c-0.089-0.203-0.242-0.304-0.461-0.304h-9.985c-0.219,0-0.372,0.102-0.46,0.304
		c-0.088,0.213-0.052,0.396,0.109,0.546l3.846,3.846v3.792c0,0.136,0.05,0.252,0.148,0.352l1.997,1.996
		c0.094,0.1,0.211,0.148,0.351,0.148c0.063,0,0.128-0.013,0.195-0.039c0.203-0.088,0.305-0.241,0.305-0.46v-5.789l3.846-3.846
		C261.505,251.207,261.541,251.025,261.453,250.811z"/>
</g>
</svg>
