<?xml version="1.0" encoding="utf-8"?>
<!-- Generator: Adobe Illustrator 16.0.0, SVG Export Plug-In . SVG Version: 6.00 Build 0)  -->
<!DOCTYPE svg PUBLIC "-//W3C//DTD SVG 1.1//EN" "http://www.w3.org/Graphics/SVG/1.1/DTD/svg11.dtd">
<svg version="1.1" id="Layer_1" xmlns="http://www.w3.org/2000/svg" xmlns:xlink="http://www.w3.org/1999/xlink" x="0px" y="0px"
	 width="129.533px" height="20px" viewBox="163.882 -191.03 129.533 20" enable-background="new 163.882 -191.03 129.533 20"
	 xml:space="preserve">
<g>
	<path fill="#22B99A" d="M183.163-171.03h-2.157l-7.483-15.313l-7.483,15.313h-2.157l9.641-19.973L183.163-171.03z"/>
	<path fill="#22B99A" d="M184.442-179.339c-0.213-1.491-0.12-2.938,0.279-4.341s1.048-2.65,1.943-3.742
		c0.896-1.092,2.002-1.966,3.316-2.623c1.313-0.657,2.77-0.986,4.367-0.986c2.646,0,4.944,0.906,6.897,2.717l-1.598,1.251
		c-0.746-0.657-1.554-1.158-2.424-1.504c-0.87-0.347-1.828-0.52-2.876-0.52c-1.278,0-2.441,0.266-3.488,0.799
		c-1.048,0.533-1.931,1.248-2.65,2.144c-0.719,0.896-1.238,1.931-1.558,3.103s-0.382,2.406-0.187,3.702H184.442z M195.147-179.339
		v-1.944h6.259v8.735c-0.479,0.373-0.849,0.662-1.105,0.865c-0.257,0.205-0.448,0.351-0.572,0.439
		c-0.125,0.089-0.2,0.146-0.227,0.173c-0.026,0.026-0.049,0.04-0.066,0.04v-8.309H195.147z"/>
	<path fill="#22B99A" d="M214.109-171.03c-2.734,0-5.096-0.967-7.084-2.902c-1.936-1.988-2.903-4.35-2.903-7.084
		c0-2.752,0.968-5.122,2.903-7.111c1.988-1.935,4.35-2.903,7.084-2.903c2.503,0,4.704,0.826,6.604,2.477
		c-0.089,0.089-0.214,0.213-0.373,0.373c-0.16,0.16-0.311,0.32-0.453,0.479s-0.328,0.355-0.56,0.586
		c-0.745-0.621-1.549-1.105-2.409-1.451c-0.861-0.347-1.798-0.52-2.81-0.52c-1.119,0-2.14,0.2-3.063,0.599
		c-0.923,0.399-1.784,0.999-2.583,1.798c-1.58,1.616-2.37,3.506-2.37,5.672c0,2.148,0.79,4.03,2.37,5.646
		c1.634,1.598,3.516,2.396,5.646,2.396c1.881,0,3.541-0.612,4.979-1.837c0.302,0.266,0.568,0.506,0.799,0.719
		c0.195,0.196,0.373,0.369,0.532,0.52c0.16,0.151,0.24,0.218,0.24,0.2C218.741-171.811,216.558-171.03,214.109-171.03z"/>
	<path fill="#22B99A" d="M228.062-191.03v20h-1.97v-20H228.062z"/>
	<path fill="#22B99A" d="M231.898-171.03v-20h1.97v18.056h10.92v1.944H231.898z"/>
	<path fill="#22B99A" d="M250.592-191.03v20h-1.971v-20H250.592z"/>
	<path fill="#22B99A" d="M275.093-186.929l-8.495,6.658l-8.496-6.658v13.262l-1.971,2.636v-20l10.467,8.176l10.438-8.176v20
		l-1.943-2.636V-186.929z"/>
	<path fill="#22B99A" d="M286.997-171.03c-0.905,0-1.776-0.133-2.61-0.399c-0.835-0.266-1.687-0.71-2.557-1.332l1.385-1.411
		c0.675,0.444,1.336,0.755,1.984,0.932c0.647,0.178,1.291,0.266,1.931,0.266c0.497,0,1.003-0.093,1.518-0.279
		c0.516-0.187,0.977-0.453,1.385-0.799c0.409-0.346,0.746-0.772,1.013-1.278c0.266-0.506,0.399-1.079,0.399-1.718
		c0-0.781-0.24-1.371-0.72-1.771c-0.479-0.4-1.082-0.719-1.811-0.959s-1.514-0.457-2.356-0.652
		c-0.844-0.195-1.629-0.484-2.357-0.866c-0.728-0.381-1.331-0.914-1.811-1.598s-0.719-1.62-0.719-2.81
		c0-0.923,0.19-1.718,0.572-2.384c0.382-0.666,0.874-1.216,1.478-1.651s1.287-0.759,2.051-0.972c0.764-0.213,1.535-0.32,2.317-0.32
		c0.869,0,1.727,0.129,2.569,0.386c0.844,0.258,1.709,0.697,2.597,1.318l-1.411,1.412c-0.64-0.444-1.283-0.75-1.932-0.919
		c-0.647-0.168-1.3-0.253-1.957-0.253c-0.515,0-1.025,0.058-1.531,0.173c-0.506,0.116-0.968,0.302-1.385,0.56
		s-0.754,0.604-1.012,1.039s-0.387,0.972-0.387,1.611c0,0.781,0.24,1.38,0.72,1.797c0.479,0.417,1.083,0.759,1.811,1.025
		s1.514,0.506,2.357,0.719c0.843,0.213,1.628,0.511,2.356,0.893c0.728,0.382,1.332,0.896,1.811,1.544
		c0.479,0.648,0.72,1.541,0.72,2.676c0,0.959-0.16,1.811-0.479,2.557s-0.764,1.376-1.332,1.891s-1.247,0.905-2.037,1.171
		C288.777-171.163,287.92-171.03,286.997-171.03z"/>
</g>
</svg>
