<?xml version="1.0" encoding="utf-8"?>
<!-- Generator: Adobe Illustrator 16.0.0, SVG Export Plug-In . SVG Version: 6.00 Build 0)  -->
<!DOCTYPE svg PUBLIC "-//W3C//DTD SVG 1.1//EN" "http://www.w3.org/Graphics/SVG/1.1/DTD/svg11.dtd">
<svg version="1.1" id="Layer_1" xmlns="http://www.w3.org/2000/svg" xmlns:xlink="http://www.w3.org/1999/xlink" x="0px" y="0px"
	 width="116.513px" height="30px" viewBox="-79.086 -237.25 116.513 30" enable-background="new -79.086 -237.25 116.513 30"
	 xml:space="preserve">
<g id="Layer_1_1_">
</g>
<path fill="#FFFFFF" d="M31.427-237.25H-73.086c-3.313,0-6,2.687-6,6v18c0,3.313,2.687,6,6,6H31.427c3.313,0,6-2.688,6-6v-18
	C37.427-234.563,34.741-237.25,31.427-237.25z M-57.753-214.5l-5.799-11.867l-5.8,11.867h-1.672l7.472-15.479l7.471,15.479H-57.753z
	 M-50.116-227.874c-0.812,0.413-1.497,0.967-2.054,1.662c-0.557,0.695-0.959,1.496-1.207,2.404s-0.296,1.865-0.145,2.869h-1.568
	c-0.165-1.156-0.093-2.277,0.216-3.364s0.813-2.054,1.506-2.9c0.695-0.846,1.551-1.524,2.57-2.033
	c1.018-0.509,2.146-0.764,3.384-0.764c2.05,0,3.832,0.702,5.346,2.105l-1.238,0.97c-0.578-0.509-1.204-0.897-1.878-1.166
	c-0.674-0.269-1.417-0.403-2.229-0.403C-48.404-228.493-49.305-228.287-50.116-227.874z M-41.943-215.676
	c-0.372,0.289-0.658,0.513-0.856,0.671c-0.199,0.158-0.348,0.272-0.444,0.34c-0.097,0.069-0.155,0.114-0.175,0.134
	s-0.038,0.031-0.052,0.031v-6.439h-3.323v-1.507h4.851V-215.676z M-36.474-217.864c1.267,1.238,2.725,1.857,4.376,1.857
	c1.458,0,2.744-0.475,3.859-1.424c0.234,0.207,0.44,0.392,0.619,0.557c0.151,0.152,0.289,0.286,0.413,0.403
	c0.124,0.117,0.186,0.169,0.186,0.155c-1.486,1.211-3.179,1.816-5.077,1.816c-2.119,0-3.949-0.75-5.49-2.25
	c-1.5-1.541-2.25-3.371-2.25-5.49c0-2.133,0.75-3.97,2.25-5.511c1.541-1.499,3.371-2.25,5.49-2.25c1.939,0,3.646,0.64,5.118,1.92
	c-0.069,0.069-0.166,0.165-0.289,0.289c-0.124,0.124-0.241,0.248-0.351,0.372c-0.11,0.124-0.254,0.275-0.434,0.454
	c-0.578-0.481-1.2-0.856-1.867-1.125c-0.667-0.269-1.394-0.403-2.177-0.403c-0.868,0-1.659,0.155-2.375,0.464
	c-0.715,0.31-1.383,0.774-2.002,1.393c-1.224,1.252-1.836,2.718-1.836,4.396C-38.311-220.574-37.698-219.116-36.474-217.864z
	 M-21.284-214.5h-1.526V-230h1.526V-214.5z M-8.322-214.5h-9.99V-230h1.527v13.994h8.463V-214.5z M-3.823-214.5h-1.527V-230h1.527
	V-214.5z M16.671-214.5l-1.506-2.043v-10.278l-6.583,5.16l-6.585-5.16v10.278L0.469-214.5V-230l8.112,6.336l8.09-6.336V-214.5z
	 M28.993-217.183c-0.249,0.578-0.592,1.066-1.032,1.466c-0.44,0.399-0.967,0.702-1.579,0.908c-0.613,0.207-1.276,0.31-1.991,0.31
	c-0.702,0-1.377-0.103-2.023-0.31c-0.647-0.206-1.307-0.55-1.981-1.032l1.073-1.094c0.523,0.344,1.036,0.585,1.538,0.722
	c0.502,0.138,1,0.207,1.496,0.207c0.386,0,0.778-0.072,1.176-0.217c0.4-0.145,0.757-0.351,1.073-0.619
	c0.318-0.269,0.578-0.598,0.786-0.991c0.206-0.392,0.309-0.836,0.309-1.332c0-0.605-0.186-1.063-0.557-1.372
	c-0.373-0.31-0.839-0.557-1.403-0.743c-0.564-0.186-1.173-0.354-1.827-0.505c-0.654-0.151-1.262-0.375-1.827-0.671
	c-0.563-0.296-1.031-0.708-1.403-1.238s-0.557-1.256-0.557-2.178c0-0.715,0.147-1.331,0.443-1.847
	c0.296-0.516,0.677-0.942,1.145-1.279c0.468-0.337,0.998-0.588,1.589-0.753S24.631-230,25.237-230c0.673,0,1.338,0.1,1.992,0.299
	c0.654,0.2,1.325,0.541,2.012,1.022l-1.093,1.094c-0.497-0.344-0.995-0.581-1.497-0.712s-1.008-0.196-1.517-0.196
	c-0.399,0-0.795,0.045-1.187,0.134c-0.392,0.09-0.75,0.234-1.073,0.434c-0.323,0.2-0.584,0.468-0.784,0.805s-0.3,0.753-0.3,1.249
	c0,0.605,0.186,1.07,0.558,1.393c0.372,0.324,0.839,0.588,1.403,0.795c0.564,0.206,1.173,0.392,1.827,0.557s1.262,0.396,1.827,0.691
	c0.563,0.296,1.032,0.695,1.403,1.197c0.371,0.502,0.557,1.194,0.557,2.074C29.364-218.421,29.24-217.761,28.993-217.183z"/>
</svg>
