<?xml version="1.0" encoding="utf-8"?>
<!-- Generator: Adobe Illustrator 16.0.0, SVG Export Plug-In . SVG Version: 6.00 Build 0)  -->
<!DOCTYPE svg PUBLIC "-//W3C//DTD SVG 1.1//EN" "http://www.w3.org/Graphics/SVG/1.1/DTD/svg11.dtd">
<svg version="1.1" xmlns="http://www.w3.org/2000/svg" xmlns:xlink="http://www.w3.org/1999/xlink" x="0px" y="0px"
	 width="106.513px" height="30px" viewBox="-6.808 -5 106.513 30" enable-background="new -6.808 -5 106.513 30"
	 xml:space="preserve">
<g id="Layer_1">
</g>
<g id="Layer_2">
	<path fill="#FFFFFF" d="M93.705-5H-0.808c-3.313,0-6,2.687-6,6v18c0,3.313,2.687,6,6,6h94.513c3.313,0,6-2.687,6-6V1
		C99.705-2.313,97.019-5,93.705-5z M13.534,17.5L7.923,6.015L2.31,17.5H0.692L7.923,2.521L15.152,17.5H13.534z M20.925,4.558
		c-0.786,0.398-1.447,0.937-1.988,1.607c-0.539,0.671-0.927,1.449-1.168,2.326c-0.24,0.88-0.287,1.806-0.14,2.777l-1.519,0.002
		c-0.159-1.119-0.09-2.205,0.21-3.256c0.299-1.051,0.785-1.987,1.458-2.807c0.673-0.821,1.501-1.474,2.487-1.968
		c0.983-0.492,2.076-0.74,3.275-0.74c1.983,0,3.707,0.68,5.172,2.037l-1.199,0.939c-0.559-0.491-1.164-0.869-1.816-1.127
		c-0.653-0.261-1.372-0.391-2.157-0.391C22.583,3.959,21.711,4.157,20.925,4.558z M28.834,16.363
		c-0.359,0.277-0.635,0.494-0.829,0.648c-0.192,0.15-0.335,0.263-0.429,0.33c-0.094,0.064-0.149,0.108-0.17,0.129
		c-0.019,0.019-0.037,0.029-0.05,0.029v-6.231H24.14V9.812h4.693V16.363z M34.125,14.243c1.226,1.199,2.637,1.798,4.234,1.798
		c1.411,0,2.656-0.459,3.734-1.379c0.227,0.2,0.426,0.382,0.599,0.54c0.145,0.146,0.279,0.277,0.398,0.391
		c0.12,0.112,0.181,0.164,0.181,0.149c-1.437,1.172-3.073,1.758-4.911,1.758c-2.051,0-3.822-0.726-5.313-2.177
		c-1.452-1.49-2.178-3.261-2.178-5.312c0-2.064,0.726-3.843,2.178-5.333C34.539,3.226,36.31,2.5,38.361,2.5
		c1.876,0,3.528,0.619,4.952,1.859c-0.066,0.064-0.159,0.158-0.28,0.279c-0.119,0.119-0.233,0.238-0.339,0.358
		c-0.108,0.121-0.247,0.268-0.42,0.438c-0.56-0.465-1.162-0.828-1.808-1.086c-0.646-0.261-1.348-0.391-2.106-0.391
		c-0.84,0-1.607,0.148-2.298,0.448c-0.692,0.301-1.337,0.751-1.937,1.347c-1.185,1.214-1.778,2.632-1.778,4.256
		C32.347,11.621,32.94,13.032,34.125,14.243z M48.825,17.5h-1.479v-15h1.479V17.5z M61.369,17.5H51.7v-15h1.479v13.543h8.189V17.5z
		 M79.922,17.5l-1.457-1.977V5.577l-6.371,4.995l-6.37-4.995v9.946L64.244,17.5v-15l7.85,6.134L79.922,2.5V17.5z M91.848,14.906
		c-0.24,0.557-0.574,1.03-1,1.418c-0.426,0.386-0.936,0.678-1.527,0.878c-0.592,0.197-1.234,0.298-1.926,0.298
		c-0.68,0-1.332-0.101-1.959-0.298c-0.627-0.202-1.266-0.534-1.918-0.999l1.041-1.059c0.504,0.333,1,0.564,1.486,0.7
		c0.484,0.131,0.967,0.198,1.447,0.198c0.373,0,0.75-0.069,1.141-0.209c0.385-0.14,0.73-0.34,1.035-0.598
		c0.307-0.261,0.561-0.58,0.762-0.957c0.197-0.382,0.297-0.812,0.297-1.291c0-0.586-0.178-1.027-0.539-1.328
		c-0.359-0.3-0.813-0.54-1.359-0.719c-0.547-0.182-1.135-0.342-1.766-0.49c-0.635-0.146-1.223-0.36-1.768-0.648
		c-0.547-0.285-0.996-0.686-1.357-1.2c-0.361-0.511-0.541-1.214-0.541-2.106c0-0.691,0.143-1.288,0.43-1.788
		c0.287-0.498,0.654-0.911,1.107-1.238c0.455-0.325,0.965-0.569,1.541-0.728c0.57-0.161,1.15-0.24,1.736-0.24
		c0.65,0,1.295,0.096,1.926,0.29c0.633,0.191,1.283,0.521,1.947,0.988l-1.057,1.059c-0.479-0.333-0.965-0.563-1.449-0.689
		c-0.484-0.125-0.975-0.19-1.467-0.19c-0.389,0-0.77,0.044-1.148,0.13c-0.381,0.087-0.727,0.227-1.039,0.421
		c-0.313,0.191-0.566,0.452-0.758,0.777c-0.195,0.327-0.293,0.729-0.293,1.209c0,0.586,0.182,1.036,0.543,1.35
		c0.357,0.313,0.809,0.568,1.359,0.767c0.543,0.202,1.131,0.38,1.766,0.54c0.631,0.161,1.221,0.382,1.768,0.669
		c0.543,0.288,0.998,0.674,1.357,1.157c0.357,0.488,0.539,1.155,0.539,2.008C92.205,13.706,92.084,14.346,91.848,14.906z"/>
</g>
</svg>
