<?xml version="1.0" encoding="utf-8"?>
<!-- Generator: Adobe Illustrator 16.0.0, SVG Export Plug-In . SVG Version: 6.00 Build 0)  -->
<!DOCTYPE svg PUBLIC "-//W3C//DTD SVG 1.1//EN" "http://www.w3.org/Graphics/SVG/1.1/DTD/svg11.dtd">
<svg version="1.1" id="Layer_1" xmlns="http://www.w3.org/2000/svg" xmlns:xlink="http://www.w3.org/1999/xlink" x="0px" y="0px"
	 width="50px" height="39.629px" viewBox="0 0 50 39.629" enable-background="new 0 0 50 39.629" xml:space="preserve">
<g>
	<g>
		<path fill="#26B99A" d="M16.964,17.596h-1.897L8.482,4.123L1.898,17.595H0L8.482,0.023L16.964,17.596z"/>
		<path fill="#26B99A" d="M18.089,10.287c-0.188-1.313-0.106-2.585,0.246-3.82c0.351-1.233,0.922-2.331,1.71-3.292
			c0.789-0.961,1.761-1.73,2.917-2.309C24.117,0.289,25.398,0,26.805,0c2.328,0,4.35,0.796,6.069,2.39l-1.406,1.102
			c-0.656-0.578-1.367-1.02-2.132-1.325c-0.765-0.304-1.609-0.457-2.53-0.457c-1.125,0-2.148,0.235-3.069,0.703
			c-0.922,0.468-1.699,1.097-2.333,1.886c-0.632,0.788-1.089,1.699-1.371,2.729c-0.281,1.031-0.336,2.118-0.164,3.258L18.089,10.287
			L18.089,10.287z M27.508,10.287V8.576h5.507v7.686c-0.422,0.328-0.747,0.581-0.973,0.761c-0.227,0.18-0.395,0.31-0.504,0.387
			c-0.109,0.078-0.176,0.13-0.198,0.152c-0.023,0.023-0.044,0.035-0.059,0.035v-7.31H27.508z"/>
		<path fill="#26B99A" d="M44.191,17.596c-2.407,0-4.484-0.851-6.234-2.553c-1.702-1.75-2.554-3.827-2.554-6.232
			c0-2.422,0.852-4.507,2.554-6.257C39.707,0.852,41.784,0,44.191,0c2.2,0,4.137,0.726,5.809,2.179
			c-0.077,0.078-0.188,0.188-0.327,0.328c-0.141,0.14-0.274,0.281-0.398,0.421c-0.126,0.141-0.289,0.313-0.493,0.515
			c-0.656-0.546-1.362-0.972-2.119-1.277C45.902,1.863,45.08,1.71,44.19,1.71c-0.985,0-1.884,0.176-2.696,0.528
			c-0.813,0.351-1.569,0.878-2.273,1.581c-1.39,1.421-2.084,3.084-2.084,4.991c0,1.89,0.694,3.546,2.084,4.968
			c1.438,1.405,3.094,2.108,4.969,2.108c1.655,0,3.116-0.539,4.381-1.617c0.266,0.235,0.5,0.445,0.702,0.632
			c0.171,0.174,0.329,0.325,0.469,0.458s0.211,0.191,0.211,0.176C48.267,16.91,46.346,17.596,44.191,17.596z"/>
	</g>
	<g>
		<path fill="#26B99A" d="M1.646,22.91v16.72H0V22.91H1.646z"/>
		<path fill="#26B99A" d="M4.853,39.629V22.91H6.5v15.095h9.128v1.625H4.853z"/>
		<path fill="#26B99A" d="M34.686,26.338l-7.103,5.565l-7.101-5.565v11.086l-1.648,2.204V22.91l8.749,6.836l8.728-6.836v16.72
			l-1.625-2.204V26.338z"/>
		<path fill="#26B99A" d="M44.636,39.629c-0.757,0-1.484-0.111-2.182-0.334c-0.698-0.223-1.411-0.593-2.138-1.113l1.158-1.18
			c0.563,0.372,1.116,0.632,1.657,0.778c0.542,0.149,1.08,0.224,1.614,0.224c0.415,0,0.838-0.077,1.27-0.233
			c0.43-0.155,0.815-0.379,1.156-0.667c0.341-0.29,0.623-0.646,0.847-1.068c0.223-0.424,0.334-0.902,0.334-1.438
			c0-0.653-0.2-1.146-0.602-1.48c-0.4-0.333-0.905-0.601-1.515-0.801s-1.265-0.382-1.969-0.547
			c-0.705-0.162-1.363-0.403-1.971-0.723c-0.609-0.317-1.113-0.764-1.515-1.336c-0.399-0.569-0.6-1.354-0.6-2.349
			c0-0.771,0.158-1.436,0.478-1.993c0.319-0.556,0.731-1.017,1.236-1.38c0.504-0.364,1.075-0.634,1.714-0.813
			c0.638-0.177,1.284-0.267,1.938-0.267c0.727,0,1.442,0.108,2.147,0.324c0.704,0.215,1.429,0.582,2.17,1.102l-1.179,1.18
			c-0.534-0.371-1.073-0.627-1.614-0.768s-1.088-0.212-1.636-0.212c-0.432,0-0.858,0.048-1.281,0.145
			c-0.422,0.097-0.808,0.253-1.157,0.469c-0.35,0.214-0.632,0.503-0.846,0.866c-0.215,0.364-0.324,0.813-0.324,1.348
			c0,0.652,0.201,1.154,0.603,1.502c0.399,0.349,0.904,0.635,1.514,0.857c0.608,0.223,1.265,0.422,1.97,0.602
			c0.705,0.178,1.361,0.426,1.972,0.745c0.606,0.319,1.111,0.75,1.513,1.291c0.4,0.542,0.602,1.288,0.602,2.237
			c0,0.801-0.135,1.514-0.401,2.138s-0.637,1.149-1.113,1.579c-0.476,0.431-1.042,0.758-1.702,0.98
			C46.124,39.518,45.408,39.629,44.636,39.629z"/>
	</g>
</g>
</svg>
