<?xml version="1.0" encoding="utf-8"?>
<!-- Generator: Adobe Illustrator 16.0.0, SVG Export Plug-In . SVG Version: 6.00 Build 0)  -->
<!DOCTYPE svg PUBLIC "-//W3C//DTD SVG 1.1//EN" "http://www.w3.org/Graphics/SVG/1.1/DTD/svg11.dtd">
<svg version="1.1" id="Layer_1" xmlns="http://www.w3.org/2000/svg" xmlns:xlink="http://www.w3.org/1999/xlink" x="0px" y="0px"
	 width="122.02px" height="20px" viewBox="38.989 6.391 122.02 20" enable-background="new 38.989 6.391 122.02 20"
	 xml:space="preserve">
<g>
	<path fill="#22B99A" d="M58.27,26.391h-2.157L48.63,11.077L41.146,26.39h-2.157L48.63,6.418L58.27,26.391z"/>
	<path fill="#22B99A" d="M59.548,18.083c-0.214-1.492-0.121-2.938,0.279-4.341c0.399-1.402,1.047-2.649,1.944-3.742
		s2.002-1.966,3.316-2.624c1.313-0.657,2.769-0.985,4.368-0.985c2.645,0,4.943,0.905,6.897,2.716l-1.598,1.252
		c-0.746-0.657-1.554-1.158-2.423-1.505c-0.87-0.346-1.829-0.52-2.875-0.52c-1.279,0-2.442,0.267-3.489,0.799
		c-1.048,0.532-1.931,1.248-2.651,2.144c-0.719,0.896-1.237,1.931-1.558,3.102c-0.319,1.172-0.382,2.406-0.186,3.703L59.548,18.083
		L59.548,18.083z M70.254,18.083v-1.945h6.258v8.735c-0.479,0.373-0.848,0.661-1.105,0.865c-0.257,0.204-0.448,0.352-0.572,0.439
		c-0.125,0.089-0.2,0.147-0.227,0.174c-0.026,0.025-0.05,0.04-0.067,0.04v-8.309H70.254z"/>
	<path fill="#22B99A" d="M89.215,26.391c-2.735,0-5.096-0.968-7.084-2.902c-1.936-1.989-2.903-4.35-2.903-7.084
		c0-2.752,0.967-5.122,2.903-7.111c1.988-1.935,4.35-2.903,7.084-2.903c2.502,0,4.704,0.825,6.603,2.477
		c-0.088,0.088-0.212,0.213-0.372,0.373C95.286,9.4,95.134,9.56,94.993,9.72c-0.144,0.16-0.329,0.355-0.56,0.585
		c-0.746-0.621-1.549-1.104-2.41-1.451c-0.862-0.346-1.798-0.52-2.809-0.52c-1.12,0-2.141,0.2-3.064,0.6
		c-0.923,0.399-1.784,0.999-2.583,1.797c-1.58,1.615-2.37,3.506-2.37,5.672c0,2.148,0.79,4.03,2.37,5.646
		c1.633,1.597,3.516,2.396,5.646,2.396c1.882,0,3.542-0.612,4.979-1.838c0.302,0.267,0.568,0.506,0.799,0.719
		c0.194,0.196,0.373,0.369,0.532,0.52c0.159,0.15,0.24,0.218,0.24,0.2C93.848,25.61,91.665,26.391,89.215,26.391z"/>
	<path fill="#22B99A" d="M103.168,6.391v20h-1.97v-20H103.168z"/>
	<path fill="#22B99A" d="M107.003,26.391v-20h1.971v18.056h10.919v1.944H107.003z"/>
	<path fill="#22B99A" d="M142.688,10.492l-8.495,6.658l-8.494-6.658v13.262l-1.972,2.637V6.391l10.466,8.176l10.439-8.176v20
		l-1.944-2.637V10.492z"/>
	<path fill="#22B99A" d="M154.592,26.391c-0.905,0-1.775-0.134-2.609-0.399c-0.836-0.267-1.688-0.71-2.557-1.332l1.385-1.411
		c0.674,0.444,1.336,0.755,1.982,0.932c0.648,0.178,1.292,0.267,1.931,0.267c0.497,0,1.002-0.093,1.519-0.279
		c0.515-0.186,0.976-0.453,1.384-0.798c0.408-0.348,0.746-0.772,1.013-1.278c0.267-0.507,0.399-1.079,0.399-1.719
		c0-0.781-0.239-1.371-0.72-1.771c-0.479-0.399-1.083-0.719-1.812-0.958c-0.729-0.24-1.514-0.458-2.355-0.654
		c-0.844-0.194-1.63-0.482-2.357-0.864c-0.729-0.381-1.331-0.915-1.812-1.599c-0.479-0.682-0.718-1.62-0.718-2.81
		c0-0.922,0.189-1.718,0.571-2.384c0.383-0.666,0.875-1.215,1.479-1.651c0.604-0.435,1.287-0.759,2.051-0.972
		c0.763-0.213,1.536-0.319,2.317-0.319c0.869,0,1.726,0.129,2.569,0.386c0.842,0.257,1.709,0.697,2.597,1.318l-1.411,1.412
		c-0.639-0.444-1.284-0.751-1.931-0.919c-0.648-0.167-1.302-0.253-1.957-0.253c-0.517,0-1.026,0.058-1.532,0.173
		c-0.505,0.116-0.967,0.302-1.385,0.56c-0.417,0.256-0.755,0.603-1.012,1.038c-0.257,0.435-0.387,0.972-0.387,1.611
		c0,0.782,0.24,1.381,0.72,1.798c0.479,0.417,1.082,0.759,1.812,1.025c0.728,0.267,1.513,0.506,2.355,0.719
		c0.844,0.214,1.629,0.51,2.358,0.893c0.726,0.381,1.33,0.896,1.81,1.543c0.479,0.648,0.72,1.541,0.72,2.676
		c0,0.959-0.16,1.812-0.479,2.558s-0.763,1.375-1.332,1.89c-0.568,0.515-1.247,0.906-2.037,1.172
		C156.372,26.258,155.516,26.391,154.592,26.391z"/>
</g>
</svg>
