<?xml version="1.0" encoding="utf-8"?>
<!-- Generator: Adobe Illustrator 16.0.0, SVG Export Plug-In . SVG Version: 6.00 Build 0)  -->
<!DOCTYPE svg PUBLIC "-//W3C//DTD SVG 1.1//EN" "http://www.w3.org/Graphics/SVG/1.1/DTD/svg11.dtd">
<svg version="1.1" id="Layer_1" xmlns="http://www.w3.org/2000/svg" xmlns:xlink="http://www.w3.org/1999/xlink" x="0px" y="0px" 	 width="50px" height="34.994px" viewBox="-0.233 2.391 50 34.994" enable-background="new -0.233 2.391 50 34.994" 	 xml:space="preserve"> <g> 	<path fill="#22B99A" d="M16.73,19.986h-1.897L8.248,6.515L1.666,19.986h-1.899L8.248,2.415L16.73,19.986z"/> 	<path fill="#22B99A" d="M17.855,12.677c-0.188-1.312-0.106-2.585,0.246-3.819c0.351-1.234,0.921-2.332,1.71-3.292 		s1.761-1.73,2.917-2.308c1.155-0.578,2.437-0.868,3.843-0.868c2.326,0,4.349,0.797,6.067,2.39l-1.406,1.101 		c-0.656-0.578-1.366-1.019-2.132-1.323c-0.765-0.305-1.608-0.457-2.529-0.457c-1.126,0-2.148,0.234-3.069,0.703 		c-0.923,0.469-1.7,1.098-2.332,1.886s-1.089,1.699-1.371,2.729c-0.28,1.031-0.335,2.117-0.163,3.257H17.855z M27.273,12.677v-1.71 		h5.506v7.685c-0.421,0.328-0.746,0.582-0.973,0.761c-0.226,0.18-0.394,0.309-0.504,0.387c-0.109,0.079-0.175,0.129-0.199,0.152 		c-0.022,0.023-0.043,0.035-0.059,0.035v-7.31H27.273z"/> 	<path fill="#22B99A" d="M43.955,19.986c-2.405,0-4.483-0.851-6.232-2.553c-1.703-1.75-2.554-3.827-2.554-6.232 		c0-2.421,0.851-4.506,2.554-6.256c1.749-1.702,3.827-2.554,6.232-2.554c2.203,0,4.14,0.727,5.812,2.179 		c-0.079,0.079-0.189,0.188-0.328,0.328c-0.141,0.141-0.273,0.281-0.398,0.422c-0.126,0.14-0.289,0.313-0.493,0.515 		c-0.655-0.546-1.363-0.972-2.119-1.276c-0.758-0.305-1.582-0.457-2.473-0.457c-0.984,0-1.882,0.175-2.694,0.527 		s-1.57,0.878-2.273,1.582c-1.39,1.422-2.084,3.085-2.084,4.991c0,1.89,0.694,3.546,2.084,4.967 		c1.438,1.406,3.093,2.108,4.968,2.108c1.655,0,3.115-0.539,4.382-1.617c0.265,0.234,0.5,0.445,0.703,0.632 		c0.172,0.172,0.328,0.325,0.467,0.457c0.142,0.133,0.212,0.192,0.212,0.176C48.031,19.3,46.11,19.986,43.955,19.986z"/> </g> <g> 	<path fill="#22B99A" d="M1.23,22.531v14.854h-1.464V22.531H1.23z"/> 	<path fill="#22B99A" d="M4.08,37.385V22.531h1.462v13.41h8.109v1.443H4.08z"/> 	<path fill="#22B99A" d="M17.962,22.531v14.854H16.5V22.531H17.962z"/> 	<path fill="#22B99A" d="M36.159,25.577l-6.31,4.944l-6.31-4.944v9.85l-1.464,1.958V22.531l7.774,6.071l7.753-6.071v14.854 		l-1.443-1.958V25.577z"/> 	<path fill="#22B99A" d="M45,37.385c-0.672,0-1.319-0.099-1.938-0.298c-0.62-0.197-1.253-0.527-1.898-0.987l1.027-1.049 		c0.502,0.329,0.993,0.561,1.475,0.692c0.48,0.132,0.959,0.198,1.433,0.198c0.37,0,0.746-0.07,1.128-0.208 		c0.383-0.14,0.725-0.337,1.029-0.594c0.304-0.257,0.553-0.573,0.75-0.949c0.198-0.377,0.298-0.801,0.298-1.276 		c0-0.58-0.179-1.018-0.534-1.315c-0.356-0.296-0.805-0.533-1.346-0.711c-0.54-0.179-1.124-0.341-1.749-0.484 		c-0.628-0.146-1.21-0.359-1.751-0.643c-0.54-0.284-0.988-0.679-1.344-1.188c-0.357-0.507-0.535-1.203-0.535-2.086 		c0-0.686,0.142-1.276,0.425-1.771c0.283-0.494,0.649-0.902,1.098-1.226c0.449-0.323,0.956-0.563,1.522-0.722 		c0.567-0.158,1.142-0.237,1.722-0.237c0.645,0,1.282,0.096,1.908,0.287c0.627,0.19,1.27,0.518,1.93,0.979L48.6,24.845 		c-0.476-0.329-0.953-0.557-1.435-0.683c-0.481-0.125-0.966-0.188-1.454-0.188c-0.383,0-0.761,0.043-1.137,0.129 		c-0.377,0.086-0.719,0.225-1.028,0.415c-0.311,0.191-0.56,0.448-0.752,0.771c-0.191,0.323-0.287,0.723-0.287,1.197 		c0,0.579,0.179,1.024,0.534,1.335c0.355,0.31,0.805,0.563,1.346,0.761c0.539,0.198,1.124,0.376,1.751,0.534 		c0.625,0.158,1.208,0.379,1.749,0.662s0.99,0.667,1.346,1.147c0.355,0.481,0.534,1.145,0.534,1.987 		c0,0.713-0.118,1.345-0.357,1.899c-0.237,0.554-0.567,1.021-0.988,1.404c-0.423,0.383-0.926,0.672-1.514,0.869 		C46.321,37.286,45.686,37.385,45,37.385z"/> </g> </svg>
